# Blender v2.67 (sub 0) OBJ File: 'combine.blend'
# www.blender.org
o Cylinder
v -3.208878 1.850342 2.749889
v 3.191122 1.850343 2.749890
v -3.208878 1.159359 1.798833
v 3.191122 1.159360 1.798833
v -3.208878 0.041325 2.162104
v 3.191122 0.041326 2.162104
v -3.208878 0.041325 3.337675
v 3.191122 0.041326 3.337675
v -3.208878 1.159359 3.700946
v 3.191122 1.159360 3.700946
vt 0.354606 0.186123
vt 0.354606 0.813878
vt 0.239298 0.186123
vt 0.239298 0.813878
vt 0.123990 0.813878
vt 0.123990 0.186123
vt 0.008682 0.813878
vt 0.527568 0.991318
vt 0.434282 0.923542
vt 0.620854 0.923542
vt 0.469914 0.186123
vt 0.469914 0.813877
vt 0.585222 0.186123
vt 0.585221 0.813877
vt 0.434282 0.076458
vt 0.620854 0.076458
vt 0.527568 0.008682
vt 0.008682 0.186123
vn -0.000000 0.809017 -0.587785
vn 0.000000 -0.309017 -0.951056
vn 0.000000 -1.000000 0.000000
vn 1.000000 -0.000000 0.000000
vn -0.000000 0.809017 0.587785
vn -0.000000 -0.309017 0.951057
s off
f 1/1/1 2/2/1 3/3/1
f 3/3/2 4/4/2 6/5/2
f 5/6/3 6/5/3 8/7/3
f 4/8/4 2/9/4 6/10/4
f 9/11/5 10/12/5 1/1/5
f 7/13/6 8/14/6 10/12/6
f 3/15/4 1/11/4 9/13/4
f 7/16/4 5/17/4 9/13/4
f 2/2/1 4/4/1 3/3/1
f 5/6/2 3/3/2 6/5/2
f 7/18/3 5/6/3 8/7/3
f 2/9/4 10/12/4 8/14/4
f 6/10/4 2/9/4 8/14/4
f 10/12/5 2/2/5 1/1/5
f 9/11/6 7/13/6 10/12/6
f 5/17/4 3/15/4 9/13/4
